<?xml version="1.0" encoding="UTF-8" standalone="no"?>
<!-- Created with Inkscape (http://www.inkscape.org/) -->

<svg
   width="145"
   height="145"
   viewBox="0 0 38.364582 38.364584"
   version="1.1"
   id="svg1252"
   inkscape:version="1.1.1 (c3084ef, 2021-09-22)"
   sodipodi:docname="action_down.svg"
   inkscape:export-filename="/Volumes/Extend/Data/PuzzleTool/app/src/main/res/drawable-xxhdpi/action_down.png"
   inkscape:export-xdpi="96"
   inkscape:export-ydpi="96"
   xmlns:inkscape="http://www.inkscape.org/namespaces/inkscape"
   xmlns:sodipodi="http://sodipodi.sourceforge.net/DTD/sodipodi-0.dtd"
   xmlns="http://www.w3.org/2000/svg"
   xmlns:svg="http://www.w3.org/2000/svg">
  <sodipodi:namedview
     id="namedview1254"
     pagecolor="#7b8c78"
     bordercolor="#666666"
     borderopacity="1.0"
     inkscape:pageshadow="2"
     inkscape:pageopacity="0"
     inkscape:pagecheckerboard="0"
     inkscape:document-units="mm"
     showgrid="false"
     units="px"
     inkscape:zoom="1"
     inkscape:cx="73"
     inkscape:cy="77.5"
     inkscape:window-width="1874"
     inkscape:window-height="1027"
     inkscape:window-x="46"
     inkscape:window-y="25"
     inkscape:window-maximized="1"
     inkscape:current-layer="layer1" />
  <defs
     id="defs1249" />
  <g
     inkscape:label="Слой 1"
     inkscape:groupmode="layer"
     id="layer1">
    <rect
       style="fill:#fdffff;fill-opacity:0.86893201;stroke-width:5.67541;stroke-opacity:0.501961"
       id="rect1335"
       width="38.364582"
       height="38.364582"
       x="6.357829e-07"
       y="6.357829e-07"
       ry="10.079268" />
    <g
       class=""
       id="g2289"
       transform="matrix(0.07150455,0,0,0.07150455,0.94641478,1.1820938)"
       style="fill:#000000;fill-opacity:1">
      <path
         d="m 97.594,11.22 c 48.787,64.184 76.194,134.662 96.812,220.093 H 117.03 l 12.47,15.25 28.438,34.78 94.437,118.25 23.313,-29.437 101.03,-123.594 12.47,-15.25 H 314.406 C 335.026,145.88 362.43,75.405 411.22,11.22 h -79.5 C 289.51,81.954 276.86,157.277 266.03,250 h 83.75 L 253.125,368.25 156.437,250 h 86.25 C 232.047,157.177 217.479,81.007 175.812,11.22 Z m 4.875,362.56 c -6.58,1.665 -12.87,3.424 -18.814,5.283 -21.64,6.766 -38.845,14.815 -50,23.062 -11.154,8.247 -15.562,15.873 -15.562,22.47 0,6.595 4.408,14.22 15.562,22.467 11.155,8.247 28.36,16.296 50,23.063 43.278,13.533 104.154,22.125 171.375,22.125 67.223,0 128.098,-8.592 171.376,-22.125 21.64,-6.767 38.846,-14.816 50,-23.063 11.155,-8.246 15.563,-15.872 15.563,-22.468 0,-6.596 -4.41,-14.222 -15.564,-22.47 -11.154,-8.246 -28.36,-16.295 -50,-23.062 -5.944,-1.858 -12.233,-3.617 -18.812,-5.28 18.853,9.14 29.844,20.06 29.844,31.812 0,32.066 -81.665,58.062 -182.407,58.062 -100.74,0 -182.405,-25.996 -182.405,-58.062 0,-11.75 10.99,-22.673 29.844,-31.813 z m 63.936,5.72 c -4.875,1.173 -9.513,2.437 -13.812,3.78 -12.82,4.01 -22.933,8.807 -29.156,13.408 -6.224,4.6 -7.907,8.205 -7.907,10.593 0,2.39 1.684,5.994 7.907,10.595 6.224,4.6 16.336,9.397 29.157,13.406 25.642,8.02 62.127,13.19 102.437,13.19 40.31,0 76.828,-5.17 102.47,-13.19 12.82,-4.008 22.902,-8.804 29.125,-13.405 6.223,-4.6 7.906,-8.205 7.906,-10.594 0,-2.387 -1.682,-5.992 -7.905,-10.592 -6.223,-4.6 -16.304,-9.398 -29.125,-13.407 -4.308,-1.346 -8.956,-2.605 -13.844,-3.78 8.692,4.787 13.688,10.355 13.688,16.28 0,17.987 -45.808,32.564 -102.313,32.564 -56.504,0 -102.31,-14.577 -102.31,-32.563 0,-5.923 5.002,-11.494 13.686,-16.28 z"
         fill="#ffffff"
         fill-opacity="1"
         id="path2287"
         style="fill:#000000;fill-opacity:1" />
    </g>
  </g>
</svg>
