<?xml version="1.0" encoding="UTF-8" standalone="no"?>
<!-- Created with Inkscape (http://www.inkscape.org/) -->

<svg
   width="145"
   height="145"
   viewBox="0 0 38.364582 38.364584"
   version="1.1"
   id="svg1252"
   inkscape:version="1.1.1 (c3084ef, 2021-09-22)"
   sodipodi:docname="action_rigth.svg"
   inkscape:export-filename="/Volumes/Extend/Data/PuzzleTool/app/src/main/res/drawable-xxhdpi/action_right.png"
   inkscape:export-xdpi="96"
   inkscape:export-ydpi="96"
   xmlns:inkscape="http://www.inkscape.org/namespaces/inkscape"
   xmlns:sodipodi="http://sodipodi.sourceforge.net/DTD/sodipodi-0.dtd"
   xmlns="http://www.w3.org/2000/svg"
   xmlns:svg="http://www.w3.org/2000/svg">
  <sodipodi:namedview
     id="namedview1254"
     pagecolor="#7b8c78"
     bordercolor="#666666"
     borderopacity="1.0"
     inkscape:pageshadow="2"
     inkscape:pageopacity="0"
     inkscape:pagecheckerboard="0"
     inkscape:document-units="mm"
     showgrid="false"
     units="px"
     inkscape:zoom="1"
     inkscape:cx="73"
     inkscape:cy="77.5"
     inkscape:window-width="1874"
     inkscape:window-height="1027"
     inkscape:window-x="46"
     inkscape:window-y="25"
     inkscape:window-maximized="1"
     inkscape:current-layer="layer1" />
  <defs
     id="defs1249" />
  <g
     inkscape:label="Слой 1"
     inkscape:groupmode="layer"
     id="layer1">
    <rect
       style="fill:#fdffff;fill-opacity:0.86893201;stroke-width:5.67541;stroke-opacity:0.501961"
       id="rect1335"
       width="38.364582"
       height="38.364582"
       x="6.357829e-07"
       y="6.357829e-07"
       ry="10.079268" />
    <g
       class=""
       id="g1743"
       transform="matrix(0.04063391,-0.0482551,0.04051114,0.04840134,-1.4032,19.19477)"
       style="fill:#010000;fill-opacity:1">
      <path
         d="m 18.285,16.297 v 20.52 L 127.088,163.57 c 35.955,91.222 6.358,156.645 -59.43,178.098 l 111.852,34.758 c 6.88,-3.465 12.225,-7.756 17.69,-12.64 38.677,-34.554 39.72,-103.556 -23.38,-190.208 98.413,71.66 174.565,60.578 202.85,5.686 L 342.545,66.78 C 321.255,132.06 256.299,162.08 166,127.574 L 36.908,16.297 Z M 401.998,221.48 c -18.06,55.37 -84.184,71.942 -172.205,7.846 64.098,88.022 47.94,153.736 -7.432,171.79 l 73.095,22.714 c 4.504,-2.256 8.003,-5.05 11.566,-8.252 l -0.002,-0.006 c 25.274,-22.58 25.955,-67.676 -15.28,-124.302 64.31,46.833 114.076,39.59 132.56,3.716 L 402,221.48 Z m 41.68,114.366 c -10.75,32.968 -50,42.71 -102.408,4.545 38.163,52.41 28.42,91.66 -4.55,102.41 l 153.8,46.843 -46.84,-153.797 h -0.002 z"
         fill="#ffffff"
         fill-opacity="1"
         id="path1741"
         style="fill:#010000;fill-opacity:1" />
    </g>
  </g>
</svg>
