<?xml version="1.0" encoding="UTF-8" standalone="no"?>
<svg
   viewBox="0 0 24 24"
   version="1.1"
   id="svg830"
   sodipodi:docname="ic_pallete.svg"
   width="24"
   height="24"
   inkscape:version="1.1.1 (c3084ef, 2021-09-22)"
   xmlns:inkscape="http://www.inkscape.org/namespaces/inkscape"
   xmlns:sodipodi="http://sodipodi.sourceforge.net/DTD/sodipodi-0.dtd"
   xmlns="http://www.w3.org/2000/svg"
   xmlns:svg="http://www.w3.org/2000/svg">
  <defs
     id="defs834" />
  <sodipodi:namedview
     id="namedview832"
     pagecolor="#ffb0ff"
     bordercolor="#666666"
     borderopacity="1.0"
     inkscape:pageshadow="2"
     inkscape:pageopacity="0"
     inkscape:pagecheckerboard="0"
     showgrid="false"
     inkscape:zoom="2.8937883"
     inkscape:cx="64.966742"
     inkscape:cy="32.310587"
     inkscape:window-width="1874"
     inkscape:window-height="1027"
     inkscape:window-x="46"
     inkscape:window-y="25"
     inkscape:window-maximized="1"
     inkscape:current-layer="svg830" />
  <rect
     style="fill:#000000;fill-opacity:1;stroke:none;stroke-width:22.383;stroke-opacity:0.501961"
     id="rect990"
     width="24"
     height="24"
     x="1.8022192e-07"
     y="1.8022192e-07"
     ry="3.4382021" />
  <g
     class=""
     id="g828"
     transform="matrix(0.04447369,0,0,0.04447369,0.55718132,0.53546101)">
    <path
       d="m 274.174,41.604 c -2.798,-0.01 -5.576,0.056 -8.332,0.195 -96.67,4.85 -177.38,86.93 -217.842,192 -40.462,105.06 0.914,239.97 90.336,237.48 89.42,-2.5 18.09,-99.6 65.486,-146.12 24.345,-23.9 58.852,-15.48 94.207,-5.64 l -17.6,-22.98 -4.2,-5.48 c -1.38,0.06 -2.79,0.102 -4.26,0.09 -8.24,-0.064 -17.82,-0.54 -25.25,-7.347 -13.89,-12.73 -14.4,-31.304 -14.08,-47.908 0.32,-16.605 1.12,-32.375 -4.05,-42.587 l -5.7,-11.24 12.595,-0.37 c 1.046,-0.03 2.097,-0.05 3.15,-0.053 15.8,-0.073 32.304,2.776 46.914,9.03 15.584,6.67 29.254,17.44 36.154,33.053 4.18,9.46 3.665,20.116 0.623,29.768 -0.636,2.003 -1.386,3.972 -2.24,5.89 l 54.9,71.68 c 6.21,-1.05 12.184,-2.936 17.844,-5.92 46.09,-24.313 97.313,-77.71 88.27,-129.03 -14.84,-84.23 -120.2,-154.26 -206.94,-154.52 z m 60.79,39.888 a 34.152,39.804 15.878 0 1 17.913,7.06 34.152,39.804 15.878 0 1 4.666,54.87 34.152,39.804 15.878 0 1 -48.72,9.77 34.152,39.804 15.878 0 1 -4.665,-54.87 34.152,39.804 15.878 0 1 30.805,-16.83 z m -119.85,4.467 a 39.307,30.27 71.565 0 1 34.603,35.56 39.307,30.27 71.565 0 1 -23.213,41.31 39.307,30.27 71.565 0 1 -37.678,-35.47 39.307,30.27 71.565 0 1 23.213,-41.31 39.307,30.27 71.565 0 1 3.07,-0.1 z m -88.33,79.58 a 35.75,31.637 35.137 0 1 38.16,33.05 35.75,31.637 35.137 0 1 -30.266,33.05 35.75,31.637 35.137 0 1 -38.164,-33.05 35.75,31.637 35.137 0 1 30.27,-33.06 z M 421.256,170 a 34.25,40.436 25.644 0 1 20.41,9.578 34.25,40.436 25.644 0 1 -2.914,55.51 34.25,40.436 25.644 0 1 -50.107,3.966 34.25,40.436 25.644 0 1 2.916,-55.51 A 34.25,40.436 25.644 0 1 421.26,170 Z m -174.152,27.95 c 2.982,12.774 1.784,26.197 1.548,38.275 -0.31,15.893 0.734,28.32 8.89,35.797 1.19,1.09 8.018,3.092 14.556,3.143 3.268,0.026 6.44,-0.22 8.718,-0.535 1.063,-0.146 1.874,-0.306 2.383,-0.425 l 13.02,-9.362 0.02,-0.014 c 4.46,-3.17 8.72,-9.37 10.85,-16.13 2.13,-6.76 2.07,-13.81 0,-18.49 -4.83,-10.93 -14.84,-19.26 -27.82,-24.81 -9.73,-4.17 -21,-6.65 -32.17,-7.45 z m 67.455,83.808 -14.37,11 138.781,181.212 14.36,-10.998 -138.773,-181.21 z m -200.35,60.16 a 48.74,40.895 69.57 0 1 46.46,47.85 48.74,40.895 69.57 0 1 -36.85,47.852 48.74,40.895 69.57 0 1 -46.46,-47.852 48.74,40.895 69.57 0 1 36.85,-47.85 z"
       fill="#ffffff"
       fill-opacity="1"
       id="path826" />
  </g>
</svg>
