<?xml version="1.0" encoding="UTF-8" standalone="no"?>
<!-- Created with Inkscape (http://www.inkscape.org/) -->

<svg
   width="48"
   height="48"
   viewBox="0 0 12.7 12.7"
   version="1.1"
   id="svg5"
   sodipodi:docname="ic_search.svg"
   inkscape:version="1.1.1 (c3084ef, 2021-09-22)"
   xmlns:inkscape="http://www.inkscape.org/namespaces/inkscape"
   xmlns:sodipodi="http://sodipodi.sourceforge.net/DTD/sodipodi-0.dtd"
   xmlns="http://www.w3.org/2000/svg"
   xmlns:svg="http://www.w3.org/2000/svg">
  <sodipodi:namedview
     id="namedview830"
     pagecolor="#ffffff"
     bordercolor="#666666"
     borderopacity="1.0"
     inkscape:pageshadow="2"
     inkscape:pageopacity="0.0"
     inkscape:pagecheckerboard="0"
     showgrid="false"
     inkscape:zoom="10.123408"
     inkscape:cx="12.001887"
     inkscape:cy="15.953126"
     inkscape:window-width="1875"
     inkscape:window-height="1027"
     inkscape:window-x="45"
     inkscape:window-y="25"
     inkscape:window-maximized="1"
     inkscape:current-layer="svg5" />
  <defs
     id="defs2" />
  <g
     id="layer1"
     transform="scale(2)">
    <rect
       style="fill:#000000;fill-opacity:0.868932;stroke:none;stroke-width:5.92217;stroke-opacity:0.501961"
       id="rect990"
       width="6.3499999"
       height="6.3499999"
       x="4.7683717e-08"
       y="4.7683717e-08"
       ry="0.90969098" />
    <g
       class=""
       id="g872"
       transform="matrix(0.01135988,0,0,0.01136007,0.25652968,0.29984012)">
      <path
         d="m 333.78,20.188 c -39.97,0 -79.96,15.212 -110.405,45.656 -58.667,58.667 -60.796,152.72 -6.406,213.97 l -15.782,15.748 13.25,13.25 15.75,-15.78 c 61.248,54.39 155.3,52.26 213.968,-6.407 60.887,-60.886 60.888,-159.894 0,-220.78 C 413.713,35.4 373.753,20.187 333.78,20.187 Z m 0,18.562 c 35.15,0 70.285,13.44 97.158,40.313 53.745,53.745 53.744,140.6 0,194.343 -51.526,51.526 -133.46,53.643 -187.5,6.375 l 0.218,-0.217 c -2.35,-2.05 -4.668,-4.17 -6.906,-6.407 -2.207,-2.206 -4.288,-4.496 -6.313,-6.812 l -0.218,0.22 C 182.949,212.525 185.067,130.589 236.593,79.063 263.467,52.19 298.63,38.75 333.78,38.75 Z m 0,18.813 c -30.31,0 -60.63,11.6 -83.81,34.78 -46.362,46.362 -46.362,121.234 0,167.594 10.14,10.142 21.632,18.077 33.905,23.782 -24.91,-19.087 -40.97,-49.133 -40.97,-82.94 0,-15.323 3.292,-29.888 9.22,-43 -4.165,20.485 0.44,40.88 14.47,54.907 24.583,24.585 68.744,20.318 98.624,-9.562 29.88,-29.88 34.146,-74.04 9.56,-98.625 -2.375,-2.376 -4.943,-4.473 -7.655,-6.313 45.13,8.648 79.954,46.345 84.25,92.876 4.44,-35.07 -6.82,-71.726 -33.813,-98.72 -23.18,-23.18 -53.47,-34.78 -83.78,-34.78 z M 176.907,297.688 42.094,432.5 76.656,467.063 211.47,332.25 176.906,297.687 Z M 40,456.813 24,472.78 37.22,486 53.188,470 40,456.812 Z"
         fill="#ffffff"
         fill-opacity="1"
         id="path870" />
    </g>
  </g>
</svg>
